# xmcd
# 
# Track frame offsets:
#     183
#     21418
#     39963
#     54965
#     74530
#     98928
#     122598
#     138838
#     160375
#     179498
# 
# Disc length: 2636
# 
# Revision: 20
# Processed by: cddbd v1.5.2PL0 Copyright (c) Steve Scherf et al.
# Submitted via: fre:ac v1.0.31
# 
DISCID=860a4a0a
DTITLE=Doro - Doro
DYEAR=1990
DGENRE=Hard Rock
TTITLE0=Unholy Love
TTITLE1=I Had Too Much to Dream
TTITLE2=Rock On
TTITLE3=Only You
TTITLE4=I'll Be Holding On
TTITLE5=Something Wicked This Way Comes
TTITLE6=Rare Diamond
TTITLE7=Broken
TTITLE8=Alive
TTITLE9=Mirage
EXTD=
EXTT0=
EXTT1=
EXTT2=
EXTT3=
EXTT4=
EXTT5=
EXTT6=
EXTT7=
EXTT8=
EXTT9=
PLAYORDER=
